<svg xmlns="http://www.w3.org/2000/svg" height="512pt" version="1.1" viewBox="-66 0 512 512" width="512pt">
<g id="surface1">
<path d="M 41.355469 178.894531 L 220.246094 0 L 336.421875 116.175781 L 157.53125 295.066406 Z M 41.355469 178.894531 " style=" stroke:none;fill-rule:nonzero;fill:rgb(100%,71.764706%,30.980392%);fill-opacity:1;" />
<path d="M 130.800781 89.449219 L 220.246094 0.00390625 L 336.417969 116.175781 L 246.972656 205.621094 Z M 130.800781 89.449219 " style=" stroke:none;fill-rule:nonzero;fill:rgb(100%,60.392157%,0%);fill-opacity:1;" />
<path d="M 220.25 0 L 208.738281 167.382812 L 41.355469 178.894531 Z M 220.25 0 " style=" stroke:none;fill-rule:nonzero;fill:rgb(100%,87.45098%,28.235294%);fill-opacity:1;" />
<path d="M 220.25 0 L 208.738281 167.382812 L 130.800781 89.445312 Z M 220.25 0 " style=" stroke:none;fill-rule:nonzero;fill:rgb(100%,83.137255%,0%);fill-opacity:1;" />
<path d="M 346.730469 209.101562 L 305.171875 512 L 72.648438 512 L 31.089844 209.101562 Z M 346.730469 209.101562 " style=" stroke:none;fill-rule:nonzero;fill:rgb(42.745098%,46.27451%,90.588235%);fill-opacity:1;" />
<path d="M 346.730469 209.101562 L 305.171875 512 L 188.890625 512 L 188.890625 209.101562 Z M 346.730469 209.101562 " style=" stroke:none;fill-rule:nonzero;fill:rgb(22.745098%,30.196078%,89.019608%);fill-opacity:1;" />
<path d="M 173.890625 305.960938 L 203.890625 305.960938 L 203.890625 452.621094 L 173.890625 452.621094 Z M 173.890625 305.960938 " style=" stroke:none;fill-rule:nonzero;fill:rgb(88.235294%,89.411765%,98.431373%);fill-opacity:1;" />
<path d="M 258.398438 452.621094 L 269.339844 305.957031 L 239.257812 305.957031 L 228.3125 452.621094 Z M 258.398438 452.621094 " style=" stroke:none;fill-rule:nonzero;fill:rgb(77.254902%,78.823529%,96.862745%);fill-opacity:1;" />
<path d="M 149.5 452.621094 L 138.558594 305.957031 L 108.476562 305.957031 L 119.417969 452.621094 Z M 149.5 452.621094 " style=" stroke:none;fill-rule:nonzero;fill:rgb(88.235294%,89.411765%,98.431373%);fill-opacity:1;" />
<path d="M 0 209.101562 L 380.410156 209.101562 L 380.410156 239.101562 L 0 239.101562 Z M 0 209.101562 " style=" stroke:none;fill-rule:nonzero;fill:rgb(59.215686%,63.137255%,94.117647%);fill-opacity:1;" />
<path d="M 188.890625 305.960938 L 203.890625 305.960938 L 203.890625 452.621094 L 188.890625 452.621094 Z M 188.890625 305.960938 " style=" stroke:none;fill-rule:nonzero;fill:rgb(77.254902%,78.823529%,96.862745%);fill-opacity:1;" />
<path d="M 188.890625 209.101562 L 380.410156 209.101562 L 380.410156 239.101562 L 188.890625 239.101562 Z M 188.890625 209.101562 " style=" stroke:none;fill-rule:nonzero;fill:rgb(42.745098%,46.27451%,90.588235%);fill-opacity:1;" />
</g>
</svg>