<svg height="512pt" viewBox="0 0 512 512" width="512pt" xmlns="http://www.w3.org/2000/svg"><path d="m452 40h-24v-40h-40v40h-264v-40h-40v40h-24c-33.085938 0-60 26.914062-60 60v352c0 33.085938 26.914062 60 60 60h392c33.085938 0 60-26.914062 60-60v-352c0-33.085938-26.914062-60-60-60zm-392 40h24v40h40v-40h264v40h40v-40h24c11.027344 0 20 8.972656 20 20v48h-432v-48c0-11.027344 8.972656-20 20-20zm392 392h-392c-11.027344 0-20-8.972656-20-20v-264h432v264c0 11.027344-8.972656 20-20 20zm-136-42h120v-120h-120zm40-80h40v40h-40zm0 0"/></svg>